<?xml version="1.0" encoding="UTF-8"?>
<svg width="24px" height="25px" viewBox="0 0 24 25" version="1.1" xmlns="http://www.w3.org/2000/svg" xmlns:xlink="http://www.w3.org/1999/xlink">
    <!-- Generator: sketchtool 57 (101010) - https://sketch.com -->
    <title>C76CDBC8-081A-4852-94A9-79BEE4231E78</title>
    <desc>Created with sketchtool.</desc>
    <defs>
        <polygon id="path-1" points="0 0.5 24 0.5 24 24.5 0 24.5"></polygon>
    </defs>
    <g id="Symbols" stroke="none" stroke-width="1" fill="none" fill-rule="evenodd">
        <g id="Header---Desktop" transform="translate(-945.000000, -143.000000)">
            <g id="Group-3" transform="translate(945.000000, 143.000000)">
                <mask id="mask-2" fill="white">
                    <use xlink:href="#path-1"></use>
                </mask>
                <g id="Clip-2"></g>
                <path d="M7.8335942,11.6498796 L4.41420106,11.6498796 C4.80797919,8.10587645 7.62711974,5.28751309 11.1498796,4.91420106 L11.1498796,8.3335942 C11.1498796,8.79006595 11.5231917,9.18384409 11.9998705,9.18384409 C12.455306,9.18384409 12.8501204,8.81027299 12.8501204,8.3335942 L12.8501204,4.91420106 C16.3938645,5.30797919 19.2122278,8.12711974 19.5857989,11.6498796 L16.1653695,11.6498796 C15.709934,11.6498796 15.3161559,12.0231917 15.3161559,12.4998705 C15.3161559,12.955306 15.6886908,13.3498613 16.1653695,13.3498613 L19.5857989,13.3498613 C19.1909846,16.8938645 16.3726212,19.7122278 12.8501204,20.0857989 L12.8501204,16.6651105 C12.8501204,16.209934 12.4765493,15.8161559 11.9998705,15.8161559 C11.5436578,15.8161559 11.1498796,16.1886908 11.1498796,16.6651105 L11.1498796,20.0857989 C7.60587645,19.6909846 4.78751309,16.8726212 4.41420106,13.3498613 L7.8335942,13.3498613 C8.29006595,13.3498613 8.68384409,12.9765493 8.68384409,12.4998705 C8.68384409,12.0436578 8.29006595,11.6498796 7.8335942,11.6498796 M0.849990825,13.3498613 L2.7149966,13.3498613 C3.10877473,17.8259788 6.69422826,21.3912253 11.1498796,21.7847443 L11.1498796,23.6497501 C11.1498796,24.1062219 11.5231917,24.5 11.9998705,24.5 C12.455306,24.5 12.8501204,24.1264289 12.8501204,23.6497501 L12.8501204,21.7847443 C17.3259788,21.3912253 20.8912253,17.8057717 21.2847443,13.3498613 L23.1500092,13.3498613 C23.6062219,13.3498613 24,12.9765493 24,12.4998705 C24,12.0436578 23.6264289,11.6498796 23.1500092,11.6498796 L21.2847443,11.6498796 C20.8912253,7.17402122 17.3057717,3.60877473 12.8501204,3.2149966 L12.8501204,1.34999082 C12.8501204,0.893778133 12.4765493,0.5 11.9998705,0.5 C11.5436578,0.5 11.1498796,0.873312032 11.1498796,1.34999082 L11.1498796,3.2149966 C6.67402122,3.60877473 3.10877473,7.19422826 2.7149966,11.6498796 L0.849990825,11.6498796 C0.373312032,11.6498796 0,12.0231917 0,12.4998705 C0,12.9765493 0.393778133,13.3498613 0.849990825,13.3498613" id="Fill-1" fill="#DEDEDE" mask="url(#mask-2)"></path>
            </g>
        </g>
    </g>
</svg>