<svg xmlns="http://www.w3.org/2000/svg" width="164" height="72" viewBox="0 0 164 72">
    <g fill="none" fill-rule="evenodd" stroke="#BBBDBE" stroke-linecap="square" stroke-width="2">
        <g transform="scale(1 -1) rotate(22 203.764 146.837)">
            <circle cx="22" cy="22" r="9"/>
            <path d="M44 25v-6l-6.405-.534a15.89 15.89 0 0 0-2.072-4.991l4.155-4.91-4.243-4.243-4.91 4.155a15.876 15.876 0 0 0-4.991-2.072L25 0h-6l-.534 6.405a15.89 15.89 0 0 0-4.991 2.072l-4.91-4.155-4.243 4.243 4.155 4.91a15.876 15.876 0 0 0-2.072 4.991L0 19v6l6.405.534a15.89 15.89 0 0 0 2.072 4.991l-4.155 4.91 4.243 4.243 4.91-4.155a15.876 15.876 0 0 0 4.991 2.072L19 44h6l.534-6.405a15.89 15.89 0 0 0 4.991-2.072l4.91 4.155 4.243-4.243-4.155-4.91a15.876 15.876 0 0 0 2.072-4.991L44 25z"/>
        </g>
        <g opacity=".8" transform="scale(1 -1) rotate(-50 10.426 -125.351)">
            <circle cx="15" cy="15" r="4"/>
            <path d="M30 15a2 2 0 0 0-2-2h-2.19a10.94 10.94 0 0 0-1.749-4.232l1.546-1.546a2 2 0 1 0-2.828-2.828L21.232 5.94A10.927 10.927 0 0 0 17 4.19V2a2 2 0 0 0-4 0v2.19a10.94 10.94 0 0 0-4.232 1.749L7.222 4.393a2 2 0 1 0-2.828 2.828L5.94 8.768A10.927 10.927 0 0 0 4.19 13H2a2 2 0 0 0 0 4h2.19a10.94 10.94 0 0 0 1.749 4.232l-1.546 1.546a2 2 0 1 0 2.828 2.828l1.546-1.546a10.934 10.934 0 0 0 4.232 1.749V28a2 2 0 1 0 4 0v-2.19a10.94 10.94 0 0 0 4.232-1.749l1.546 1.546a2 2 0 1 0 2.828-2.828l-1.546-1.546a10.934 10.934 0 0 0 1.749-4.232H28A2 2 0 0 0 30 15z"/>
        </g>
        <g opacity=".4" transform="scale(1 -1) rotate(-31 3.503 -257.988)">
            <path d="M22 11a2 2 0 0 0-2-2h-1.262a7.968 7.968 0 0 0-.852-2.058l.892-.892a2 2 0 1 0-2.828-2.828l-.892.892A7.968 7.968 0 0 0 13 3.262V2a2 2 0 0 0-4 0v1.262a7.968 7.968 0 0 0-2.058.852l-.892-.892A2 2 0 1 0 3.222 6.05l.892.892A7.968 7.968 0 0 0 3.262 9H2a2 2 0 0 0 0 4h1.262c.189.732.477 1.422.852 2.058l-.892.892a2 2 0 1 0 2.828 2.828l.892-.892A7.953 7.953 0 0 0 9 18.738V20a2 2 0 0 0 4 0v-1.262a7.968 7.968 0 0 0 2.058-.852l.892.892a2 2 0 1 0 2.828-2.828l-.892-.892A7.953 7.953 0 0 0 18.738 13H20a2 2 0 0 0 2-2z"/>
            <circle cx="11" cy="11" r="3"/>
        </g>
        <g>
            <g opacity=".8" transform="rotate(130 23.884 33.39)">
                <circle cx="15" cy="15" r="4"/>
                <path d="M30 15a2 2 0 0 0-2-2h-2.19a10.94 10.94 0 0 0-1.749-4.232l1.546-1.546a2 2 0 1 0-2.828-2.828L21.232 5.94A10.927 10.927 0 0 0 17 4.19V2a2 2 0 0 0-4 0v2.19a10.94 10.94 0 0 0-4.232 1.749L7.222 4.393a2 2 0 1 0-2.828 2.828L5.94 8.768A10.927 10.927 0 0 0 4.19 13H2a2 2 0 0 0 0 4h2.19a10.94 10.94 0 0 0 1.749 4.232l-1.546 1.546a2 2 0 1 0 2.828 2.828l1.546-1.546a10.934 10.934 0 0 0 4.232 1.749V28a2 2 0 1 0 4 0v-2.19a10.94 10.94 0 0 0 4.232-1.749l1.546 1.546a2 2 0 1 0 2.828-2.828l-1.546-1.546a10.934 10.934 0 0 0 1.749-4.232H28A2 2 0 0 0 30 15z"/>
            </g>
            <g opacity=".4" transform="rotate(149 10.767 21.73)">
                <path d="M22 11a2 2 0 0 0-2-2h-1.262a7.968 7.968 0 0 0-.852-2.058l.892-.892a2 2 0 1 0-2.828-2.828l-.892.892A7.968 7.968 0 0 0 13 3.262V2a2 2 0 0 0-4 0v1.262a7.968 7.968 0 0 0-2.058.852l-.892-.892A2 2 0 1 0 3.222 6.05l.892.892A7.968 7.968 0 0 0 3.262 9H2a2 2 0 0 0 0 4h1.262c.189.732.477 1.422.852 2.058l-.892.892a2 2 0 1 0 2.828 2.828l.892-.892A7.953 7.953 0 0 0 9 18.738V20a2 2 0 0 0 4 0v-1.262a7.968 7.968 0 0 0 2.058-.852l.892.892a2 2 0 1 0 2.828-2.828l-.892-.892A7.953 7.953 0 0 0 18.738 13H20a2 2 0 0 0 2-2z"/>
                <circle cx="11" cy="11" r="3"/>
            </g>
        </g>
    </g>
</svg>
